# xmcd CD database file
#
# Track frame offsets:
#	150
#	15487
#	30692
#	47413
#	64145
#	75947
#	89094
#	109138
#	125222
#	139100
#	149625
#	168284
#
# Disc length: 2454 seconds
#
# Revision: 0
# Processed by: cddbd v1.5.1PL2 Copyright (c) Steve Scherf et al.
# Submitted via: CDex 1.51
#
DISCID=a309940c
DTITLE=Theピーズ - 赤羽39
DYEAR=1900
DGENRE=Indie
TTITLE0=体にやさしいパンク
TTITLE1=ノロマが走っていく
TTITLE2=リサイクリン
TTITLE3=東の窓
TTITLE4=生きてれば
TTITLE5=焼めし
TTITLE6=クリスマス
TTITLE7=グッタリしたいぜ
TTITLE8=風の夜
TTITLE9=40
TTITLE10=耳鳴り
TTITLE11=サマー記念日
EXTD=
EXTT0=
EXTT1=
EXTT2=
EXTT3=
EXTT4=
EXTT5=
EXTT6=
EXTT7=
EXTT8=
EXTT9=
EXTT10=
EXTT11=
PLAYORDER=
